<?xml version="1.0" encoding="UTF-8"?>
<svg xmlns="http://www.w3.org/2000/svg" viewBox="0 0 778.5 676.11" role="img" aria-labelledby="futuresReportsLogoTitle">
  <title id="futuresReportsLogoTitle">Futures Reports Logo</title>
  <defs>
    <linearGradient id="futuresReportsLogoGradient" x1="764.11" y1="385.08" x2="390.34" y2="373.75" gradientTransform="translate(0 716.41) scale(1 -1)" gradientUnits="userSpaceOnUse">
      <stop offset="0" stop-color="#03bf65"/>
      <stop offset="1" stop-color="#0be575"/>
    </linearGradient>
  </defs>
  <path fill="#02a267" d="M388.47,1.15l.73-1.15c3.05,1.7,20.74,34.54,24.14,40.47l46.93,81.7,215.5,373.98,62.5,107.98c12.84,22.12,27.68,46.92,39.56,69.47l.67,1.12c-1.58,2.05-28.45,1.2-33.3,1.18h-58.15s-198.78.01-198.78.01l-323.76.02H58.21c-18.38,0-40.01.52-58.21-.19.57-3.17,14.36-26.29,17.11-31.11l65.57-113.33,199.22-345.33,65.92-114.36c13.24-23.07,26.88-47.83,40.65-70.46Z"/>
  <path fill="#16e77f" d="M464.67,467.17c2.84,2.7,15.68,10.86,19.54,13.41l42.23,27.82,167.42,110.92,55.13,36.3c4.22,2.77,26.21,17.88,28.84,17.97l.67,1.12c-1.58,2.05-28.45,1.2-33.3,1.18h-58.15s-198.78.01-198.78.01l-323.76.02H58.21c-18.38,0-40.01.52-58.21-.19,15.55-7.76,31.06-16.23,46.84-24.1,38.72-19.16,77.67-37.86,116.84-56.08l72.93-33.7c6-2.71,37.71-16.48,40.68-18.86,5.02-.41,48.58-19.49,55.8-22.45l131.58-53.37Z"/>
  <path fill="url(#futuresReportsLogoGradient)" d="M388.47,1.15l.73-1.15c3.05,1.7,20.74,34.54,24.14,40.47l46.93,81.7,215.5,373.98,62.5,107.98c12.84,22.12,27.68,46.92,39.56,69.47-2.63-.09-24.62-15.2-28.84-17.97l-55.13-36.3-167.42-110.92-42.23-27.82c-3.87-2.55-16.7-10.71-19.54-13.41-10.36-15.89-20.3-32.83-30.42-48.97l-44.65-70.62c-.65-25.75.09-55.34.1-81.39l.1-169.69.08-60.69c.01-4.96,1-31.81-1.42-34.67Z"/>
  <path fill="#f7f6f6" d="M389.61,347.58l44.65,70.62c10.11,16.14,20.06,33.08,30.42,48.97l-131.58,53.37c-7.23,2.96-50.79,22.04-55.8,22.45l112.32-195.41Z"/>
</svg>
